Coordinates
version=1
nRows=9
nColumns=36
inDegrees=yes

Units are S.I. units (second, meters, Newtons, ...)
If the header above contains a line with 'inDegrees', this indicates whether rotational values are in degrees (yes) or radians (no).

endheader
time	pelvis_tilt	pelvis_list	pelvis_rotation	pelvis_tx	pelvis_ty	pelvis_tz	hip_flexion_r	hip_adduction_r	hip_rotation_r	knee_angle_r	knee_angle_r_beta	ankle_angle_r	subtalar_angle_r	mtp_angle_r	hip_flexion_l	hip_adduction_l	hip_rotation_l	knee_angle_l	knee_angle_l_beta	ankle_angle_l	subtalar_angle_l	mtp_angle_l	lumbar_extension	lumbar_bending	lumbar_rotation	arm_flex_r	arm_add_r	arm_rot_r	elbow_flex_r	pro_sup_r	arm_flex_l	arm_add_l	arm_rot_l	elbow_flex_l	pro_sup_l
     14.83333330	     -3.76348067	      3.96432261	     -1.58522164	      0.94776383	      0.81502561	      0.70629913	      5.02089898	     -5.41938728	      0.58099346	     54.12114676	      0.94459221	    -13.89679880	    -11.13957294	     -7.49999987	     22.37439905	      6.10650288	      1.63596463	     19.36239689	      0.33793758	      8.62761888	     -4.66839295	     -7.49999987	      3.11207204	     -4.62464799	      6.32022640	      5.70001878	    -14.73691485	      5.23272650	     24.00773686	     97.46148414	      0.56699647	    -11.46098421	      4.10072735	      7.84341935	     96.32363917
     14.85000000	     -4.27833116	      3.74944768	     -1.87247430	      0.94694415	      0.81652663	      0.70577980	      9.09415712	     -5.21636371	      0.72373828	     58.04729832	      1.01311648	    -13.22605490	    -11.74919679	     -7.49999987	     21.44212252	      5.87144265	      1.49401401	     18.90963489	      0.33003539	      8.82665287	     -4.89377353	     -7.49999987	      3.61561136	     -4.30579377	      5.72416342	      5.08138155	    -14.44967692	      5.96346886	     22.63340256	     99.56111837	      0.82625142	    -11.54871044	      5.22679599	      8.15347487	     96.51390808
     14.86666670	     -4.82828308	      3.51967529	     -2.12930510	      0.94518878	      0.81843473	      0.70496021	     13.03696304	     -4.93528104	      0.78434126	     61.31036792	      1.07006779	    -11.65836744	    -12.23036694	     -7.49999987	     20.60089627	      5.62852081	      1.32215965	     18.52305825	      0.32328835	      8.94913661	     -5.22698003	     -7.49999987	      4.12577784	     -4.01149025	      5.31504041	      4.15340143	    -14.10628879	      5.55324719	     21.76935215	     99.28433770	      1.43060559	    -11.54540361	      5.11425812	      8.31760464	     95.74052092
     14.88333330	     -5.53759720	      3.30444944	     -2.27756360	      0.94349879	      0.81934628	      0.70390945	     16.98665372	     -4.61585207	      0.77421586	     63.96716138	      1.11643758	     -9.40754466	    -12.71887735	     -7.49999987	     19.87212841	      5.46394658	      1.42354648	     18.07797439	      0.31552018	      8.98289631	     -5.85113874	     -7.49999987	      4.91861595	     -3.74378293	      4.42211709	      3.47619107	    -13.68124555	      5.25104437	     20.63367475	     99.24674903	      1.93586525	    -11.65150629	      5.25124553	      8.53443170	     95.24030506
     14.90000000	     -6.05735094	      3.09155141	     -2.37468420	      0.94281652	      0.81968954	      0.70319024	     20.54323737	     -4.23695130	      0.74780803	     65.67943775	      1.14632244	     -6.31219752	    -13.10022552	     -7.49999987	     18.76988425	      5.30456314	      1.65435633	     17.48567303	      0.30518257	      9.20231087	     -6.30850989	     -7.49999987	      5.51647974	     -3.50992899	      3.38247176	      2.77249398	    -13.26318131	      5.10959655	     19.62686536	     98.74191764	      2.63936470	    -11.75596090	      5.32879763	      8.83700244	     94.45035204
     14.91666670	     -6.45144011	      2.81678391	     -2.34282016	      0.94209041	      0.82002716	      0.70206456	     23.71273622	     -3.78956863	      0.59965729	     66.00584794	      1.15201937	     -2.47032455	    -13.32052929	     -7.49999987	     17.35790699	      5.09772429	      2.15965029	     16.76613175	      0.29262420	      9.51845111	     -6.78990613	     -7.49999987	      6.01527316	     -3.18874988	      2.13321910	      2.01360667	    -12.87752950	      5.32258652	     18.68210154	     95.90774337	      3.50324276	    -11.80615745	      5.77370459	      8.95513391	     91.58674823
     14.93333330	     -6.94924670	      2.52871358	     -2.20637172	      0.93982520	      0.82059716	      0.69991003	     26.65733763	     -3.39848014	      0.33187018	     64.73865643	      1.12990271	      1.85274374	    -13.14882103	     -7.49999987	     16.00113628	      4.82864588	      2.50782302	     16.03858564	      0.27992613	     10.17212937	     -6.62121879	     -7.49999987	      6.60319814	     -2.78418617	      0.38152120	      1.70650132	    -12.72755463	      6.72452148	     17.52379398	     99.09514124	      4.07308862	    -12.28661890	      8.03167240	      9.72633997	     93.92865597
     14.95000000	     -7.18604505	      2.16844549	     -1.98652434	      0.93760958	      0.82167873	      0.69792165	     28.82986321	     -3.02922796	     -0.03030141	     61.88354028	      1.08007153	      5.18435367	    -13.11982917	     -7.49999987	     14.34853550	      4.48834809	      2.89582780	     15.27879845	      0.26666534	     10.78969077	     -6.32800132	     -7.49999987	      6.80689086	     -2.29546245	     -1.03651327	      1.17678288	    -12.40046333	      5.24631462	     16.63318931	    100.53975292	      5.05202151	    -12.50316721	      7.39954801	     10.28010884	     94.92886432
     14.96666670	     -7.33655520	      1.77415122	     -1.71657891	      0.93776368	      0.82302001	      0.69741425	     30.34752709	     -2.73860311	     -0.51305037	     57.84768699	      1.00963260	      7.29049905	    -13.21582472	     -7.49999987	     12.57983894	      4.09030534	      3.23661897	     14.43258572	      0.25189614	     11.33527278	     -5.88765915	     -7.49999987	      6.97405055	     -1.74335868	     -2.42058504	      0.79796184	    -12.26743850	      5.28555883	     15.69243408	     99.89782712	      5.97264693	    -12.78700843	      7.48213115	     10.72120004	     94.35945772
